<?xml version='1.0' encoding='iso-8859-1'?>
<svg version="1.1" xmlns="http://www.w3.org/2000/svg" fill="#fff" viewBox="0 0 64 64" xmlns:xlink="http://www.w3.org/1999/xlink" enable-background="new 0 0 64 64">
  <g>
    <g>
      <path d="m25,25c3.314,0 6-2.686 6-6s-2.686-6-6-6-6,2.686-6,6 2.686,6 6,6zm0-10c2.209,0 4,1.791 4,4 0,2.209-1.791,4-4,4-2.209,0-4-1.791-4-4 0-2.209 1.791-4 4-4zm8.74,11.283c-0.204-0.204-0.473-0.297-0.74-0.29-0.267-0.007-0.536,0.086-0.74,0.29l-8.26,8.26-3.26-3.26c-0.204-0.204-0.473-0.297-0.74-0.29-0.267-0.007-0.536,0.086-0.74,0.29l-11.977,11.977c-0.301,0.301-0.368,0.744-0.207,1.113 0.148,0.367 0.504,0.627 0.924,0.627h42c0.42,0 0.776-0.26 0.925-0.627 0.16-0.369 0.094-0.811-0.208-1.113l-16.977-16.977zm-23.346,16.717l9.606-9.606 3.265,3.265c0.008,0.008 0.01,0.019 0.018,0.027s0.019,0.01 0.027,0.018l3.982,3.982c0.394,0.394 1.032,0.394 1.425,0 0.394-0.394 0.394-1.032 0-1.425l-3.292-3.292 7.575-7.575 14.606,14.606h-37.212zm51.606-30h-4v-4c0-1.105-0.895-2-2-2h-54c-1.105,0-2,0.895-2,2v40c0,1.105 0.895,2 2,2h4v4c0,1.105 0.895,2 2,2h54c1.105,0 2-0.895 2-2v-40c0-1.105-0.895-2-2-2zm-60,36v-40h54v40h-54zm60,6h-54v-4h48c1.105,0 2-0.895 2-2v-34h4v40z"/>
    </g>
  </g>
</svg>
