<?xml version="1.0" encoding="UTF-8"?>
<svg xmlns="http://www.w3.org/2000/svg" viewBox="0 0 512 512" fill="#fff" width="512" height="512"><g id="Outline"><path d="M123.313,80H152a32,32,0,0,0,0-64H48A32.036,32.036,0,0,0,16,48V152a32,32,0,0,0,64,0V123.313L182.343,225.657a30.628,30.628,0,0,0,43.314-43.314Zm91.03,134.343a14.644,14.644,0,0,1-20.686,0l-116-116A8,8,0,0,0,64,104v48a16,16,0,0,1-32,0V48A16.019,16.019,0,0,1,48,32H152a16,16,0,0,1,0,32H104a8,8,0,0,0-5.657,13.657l116,116A14.644,14.644,0,0,1,214.343,214.343Z"/><path d="M204,277.373a30.43,30.43,0,0,0-21.657,8.97L80,388.687V360a32,32,0,0,0-64,0V464a32.036,32.036,0,0,0,32,32H152a32,32,0,0,0,0-64H123.313L225.657,329.657A30.627,30.627,0,0,0,204,277.373Zm10.343,40.97-116,116A8,8,0,0,0,104,448h48a16,16,0,0,1,0,32H48a16.019,16.019,0,0,1-16-16V360a16,16,0,0,1,32,0v48a8,8,0,0,0,13.657,5.657l116-116a14.627,14.627,0,0,1,20.686,20.686Z"/><path d="M464,16H360a32,32,0,0,0,0,64h28.687L286.343,182.343a30.628,30.628,0,0,0,43.314,43.314L432,123.313V152a32,32,0,0,0,64,0V48A32.036,32.036,0,0,0,464,16Zm16,136a16,16,0,0,1-32,0V104a8,8,0,0,0-13.657-5.657l-116,116a14.627,14.627,0,0,1-20.686-20.686l116-116A8,8,0,0,0,408,64H360a16,16,0,0,1,0-32H464a16.019,16.019,0,0,1,16,16Z"/><path d="M464,328a32.036,32.036,0,0,0-32,32v28.687L329.657,286.343a30.628,30.628,0,0,0-43.314,43.314L388.687,432H360a32,32,0,0,0,0,64H464a32.036,32.036,0,0,0,32-32V360A32.036,32.036,0,0,0,464,328Zm16,136a16.019,16.019,0,0,1-16,16H360a16,16,0,0,1,0-32h48a8,8,0,0,0,5.657-13.657l-116-116a14.627,14.627,0,0,1,20.686-20.686l116,116A8,8,0,0,0,448,408V360a16,16,0,0,1,32,0Z"/></g></svg>
